<mxfile host="app.diagrams.net" agent="Mozilla/5.0 (Windows NT 10.0; Win64; x64) AppleWebKit/537.36 (KHTML, like Gecko) Chrome/127.0.0.0 Safari/537.36" version="24.7.7">
  <diagram name="Page-1" id="2YBvvXClWsGukQMizWep">
    <mxGraphModel dx="2350" dy="1857" grid="1" gridSize="10" guides="1" tooltips="1" connect="1" arrows="1" fold="1" page="1" pageScale="1" pageWidth="850" pageHeight="1100" math="0" shadow="0">
      <root>
        <mxCell id="0" />
        <mxCell id="1" parent="0" />
        <mxCell id="aM9ryv3xv72pqoxQDRHE-5" value="Interface web de mesure de performance" style="shape=umlLifeline;perimeter=lifelinePerimeter;whiteSpace=wrap;html=1;container=0;dropTarget=0;collapsible=0;recursiveResize=0;outlineConnect=0;portConstraint=eastwest;newEdgeStyle={&quot;edgeStyle&quot;:&quot;elbowEdgeStyle&quot;,&quot;elbow&quot;:&quot;vertical&quot;,&quot;curved&quot;:0,&quot;rounded&quot;:0};" parent="1" vertex="1">
          <mxGeometry x="111" width="140" height="440" as="geometry" />
        </mxCell>
        <mxCell id="0YugQAnFwqk1ILGSHodU-4" value="" style="html=1;points=[[0,0,0,0,5],[0,1,0,0,-5],[1,0,0,0,5],[1,1,0,0,-5]];perimeter=orthogonalPerimeter;outlineConnect=0;targetShapes=umlLifeline;portConstraint=eastwest;newEdgeStyle={&quot;curved&quot;:0,&quot;rounded&quot;:0};" vertex="1" parent="aM9ryv3xv72pqoxQDRHE-5">
          <mxGeometry x="63" y="200" width="10" height="80" as="geometry" />
        </mxCell>
        <mxCell id="0YugQAnFwqk1ILGSHodU-5" value="" style="html=1;points=[[0,0,0,0,5],[0,1,0,0,-5],[1,0,0,0,5],[1,1,0,0,-5]];perimeter=orthogonalPerimeter;outlineConnect=0;targetShapes=umlLifeline;portConstraint=eastwest;newEdgeStyle={&quot;curved&quot;:0,&quot;rounded&quot;:0};" vertex="1" parent="aM9ryv3xv72pqoxQDRHE-5">
          <mxGeometry x="65" y="325" width="10" height="95" as="geometry" />
        </mxCell>
        <mxCell id="_VK_tqBm-G3R0EHeaTmm-1" value="Machine virtuelle(serveur DNS)" style="shape=umlLifeline;perimeter=lifelinePerimeter;whiteSpace=wrap;html=1;container=0;dropTarget=0;collapsible=0;recursiveResize=0;outlineConnect=0;portConstraint=eastwest;newEdgeStyle={&quot;edgeStyle&quot;:&quot;elbowEdgeStyle&quot;,&quot;elbow&quot;:&quot;vertical&quot;,&quot;curved&quot;:0,&quot;rounded&quot;:0};" parent="1" vertex="1">
          <mxGeometry x="268.69" width="140" height="860" as="geometry" />
        </mxCell>
        <mxCell id="_VK_tqBm-G3R0EHeaTmm-4" value="Base de donnée" style="shape=umlLifeline;perimeter=lifelinePerimeter;whiteSpace=wrap;html=1;container=0;dropTarget=0;collapsible=0;recursiveResize=0;outlineConnect=0;portConstraint=eastwest;newEdgeStyle={&quot;edgeStyle&quot;:&quot;elbowEdgeStyle&quot;,&quot;elbow&quot;:&quot;vertical&quot;,&quot;curved&quot;:0,&quot;rounded&quot;:0};" parent="1" vertex="1">
          <mxGeometry x="430" width="100" height="860" as="geometry" />
        </mxCell>
        <mxCell id="0YugQAnFwqk1ILGSHodU-6" value="" style="html=1;points=[[0,0,0,0,5],[0,1,0,0,-5],[1,0,0,0,5],[1,1,0,0,-5]];perimeter=orthogonalPerimeter;outlineConnect=0;targetShapes=umlLifeline;portConstraint=eastwest;newEdgeStyle={&quot;curved&quot;:0,&quot;rounded&quot;:0};" vertex="1" parent="_VK_tqBm-G3R0EHeaTmm-4">
          <mxGeometry x="45" y="372.5" width="10" height="37.5" as="geometry" />
        </mxCell>
        <mxCell id="_VK_tqBm-G3R0EHeaTmm-6" value="Système de surveillance" style="shape=umlLifeline;perimeter=lifelinePerimeter;whiteSpace=wrap;html=1;container=0;dropTarget=0;collapsible=0;recursiveResize=0;outlineConnect=0;portConstraint=eastwest;newEdgeStyle={&quot;edgeStyle&quot;:&quot;elbowEdgeStyle&quot;,&quot;elbow&quot;:&quot;vertical&quot;,&quot;curved&quot;:0,&quot;rounded&quot;:0};" parent="1" vertex="1">
          <mxGeometry x="560" width="100" height="860" as="geometry" />
        </mxCell>
        <mxCell id="_VK_tqBm-G3R0EHeaTmm-7" value="Système IA pour la détection de trafic DNS malveillant" style="shape=umlLifeline;perimeter=lifelinePerimeter;whiteSpace=wrap;html=1;container=0;dropTarget=0;collapsible=0;recursiveResize=0;outlineConnect=0;portConstraint=eastwest;newEdgeStyle={&quot;edgeStyle&quot;:&quot;elbowEdgeStyle&quot;,&quot;elbow&quot;:&quot;vertical&quot;,&quot;curved&quot;:0,&quot;rounded&quot;:0};" parent="1" vertex="1">
          <mxGeometry x="680" width="160" height="800" as="geometry" />
        </mxCell>
        <mxCell id="_VK_tqBm-G3R0EHeaTmm-14" value="" style="shape=umlLifeline;perimeter=lifelinePerimeter;whiteSpace=wrap;html=1;container=1;dropTarget=0;collapsible=0;recursiveResize=0;outlineConnect=0;portConstraint=eastwest;newEdgeStyle={&quot;curved&quot;:0,&quot;rounded&quot;:0};participant=umlActor;" parent="1" vertex="1">
          <mxGeometry x="-10" y="-10" width="20" height="860" as="geometry" />
        </mxCell>
        <mxCell id="_VK_tqBm-G3R0EHeaTmm-19" value="&lt;span style=&quot;color: rgb(0, 0, 0); font-family: Helvetica; font-size: 12px; font-style: normal; font-variant-ligatures: normal; font-variant-caps: normal; font-weight: 400; letter-spacing: normal; orphans: 2; text-indent: 0px; text-transform: none; widows: 2; word-spacing: 0px; -webkit-text-stroke-width: 0px; white-space: nowrap; background-color: rgb(251, 251, 251); text-decoration-thickness: initial; text-decoration-style: initial; text-decoration-color: initial; float: none; display: inline !important;&quot;&gt;Système&amp;nbsp;&lt;/span&gt;&lt;div style=&quot;forced-color-adjust: none; color: rgb(0, 0, 0); font-family: Helvetica; font-size: 12px; font-style: normal; font-variant-ligatures: normal; font-variant-caps: normal; font-weight: 400; letter-spacing: normal; orphans: 2; text-indent: 0px; text-transform: none; widows: 2; word-spacing: 0px; -webkit-text-stroke-width: 0px; white-space: nowrap; background-color: rgb(251, 251, 251); text-decoration-thickness: initial; text-decoration-style: initial; text-decoration-color: initial;&quot;&gt;Administrateur&lt;/div&gt;" style="text;whiteSpace=wrap;html=1;align=center;" parent="1" vertex="1">
          <mxGeometry x="-55" y="30" width="110" height="50" as="geometry" />
        </mxCell>
        <mxCell id="_VK_tqBm-G3R0EHeaTmm-46" value="Lancer un test de mesure&amp;nbsp;&lt;div&gt;de performance&lt;/div&gt;" style="html=1;verticalAlign=bottom;endArrow=block;curved=0;rounded=0;" parent="1" edge="1">
          <mxGeometry y="7" relative="1" as="geometry">
            <mxPoint x="1.7307692307692832" y="210" as="sourcePoint" />
            <mxPoint x="172" y="210" as="targetPoint" />
            <mxPoint as="offset" />
          </mxGeometry>
        </mxCell>
        <mxCell id="_VK_tqBm-G3R0EHeaTmm-47" value="Se connecter et exécuter le test" style="html=1;verticalAlign=bottom;endArrow=block;curved=0;rounded=0;" parent="1" edge="1">
          <mxGeometry relative="1" as="geometry">
            <mxPoint x="187" y="216" as="sourcePoint" />
            <mxPoint x="336.19000000000005" y="216.00000000000023" as="targetPoint" />
          </mxGeometry>
        </mxCell>
        <mxCell id="_VK_tqBm-G3R0EHeaTmm-52" value="Envoyer les résultats de test" style="html=1;verticalAlign=bottom;endArrow=open;dashed=1;endSize=8;curved=0;rounded=0;" parent="1" edge="1" target="aM9ryv3xv72pqoxQDRHE-5">
          <mxGeometry x="-0.0219" y="-10" relative="1" as="geometry">
            <mxPoint x="232" y="270" as="targetPoint" />
            <mxPoint x="337" y="270" as="sourcePoint" />
            <mxPoint as="offset" />
          </mxGeometry>
        </mxCell>
        <mxCell id="_VK_tqBm-G3R0EHeaTmm-54" value="Visualiser les résultats" style="html=1;verticalAlign=bottom;endArrow=open;dashed=1;endSize=8;curved=0;rounded=0;" parent="1" target="_VK_tqBm-G3R0EHeaTmm-14" edge="1">
          <mxGeometry x="-0.0065" y="-10" relative="1" as="geometry">
            <mxPoint x="78" y="340" as="targetPoint" />
            <mxPoint x="170" y="270" as="sourcePoint" />
            <Array as="points">
              <mxPoint x="150" y="270" />
            </Array>
            <mxPoint as="offset" />
          </mxGeometry>
        </mxCell>
        <mxCell id="_VK_tqBm-G3R0EHeaTmm-55" value="Sauvegarder les résultats&amp;nbsp;&lt;div&gt;et télécharger le rapport de test&lt;/div&gt;" style="html=1;verticalAlign=bottom;endArrow=block;curved=0;rounded=0;" parent="1" edge="1" source="_VK_tqBm-G3R0EHeaTmm-14">
          <mxGeometry x="-0.0015" y="10" relative="1" as="geometry">
            <mxPoint x="4.000769230769283" y="330" as="sourcePoint" />
            <mxPoint x="174" y="330" as="targetPoint" />
            <mxPoint as="offset" />
          </mxGeometry>
        </mxCell>
        <mxCell id="_VK_tqBm-G3R0EHeaTmm-56" value="Sauvegarder les résultats" style="html=1;verticalAlign=bottom;endArrow=block;curved=0;rounded=0;" parent="1" edge="1">
          <mxGeometry relative="1" as="geometry">
            <mxPoint x="189" y="380" as="sourcePoint" />
            <mxPoint x="478.49999999999955" y="380" as="targetPoint" />
          </mxGeometry>
        </mxCell>
        <mxCell id="_VK_tqBm-G3R0EHeaTmm-60" value="Rapport sous forme PDF" style="html=1;verticalAlign=bottom;endArrow=open;dashed=1;endSize=8;curved=0;rounded=0;" parent="1" edge="1">
          <mxGeometry relative="1" as="geometry">
            <mxPoint x="1.5909090909090082" y="410" as="targetPoint" />
            <mxPoint x="172" y="410" as="sourcePoint" />
          </mxGeometry>
        </mxCell>
        <mxCell id="_VK_tqBm-G3R0EHeaTmm-87" value="Analyser le trafic DNS et détecter s&#39;il y a un trafic malveillant" style="html=1;verticalAlign=bottom;endArrow=open;curved=0;rounded=0;endFill=0;" parent="1" edge="1">
          <mxGeometry x="-0.0029" relative="1" as="geometry">
            <mxPoint x="759.5" y="724" as="sourcePoint" />
            <mxPoint x="337.00034482758605" y="724" as="targetPoint" />
            <mxPoint as="offset" />
            <Array as="points">
              <mxPoint x="492.19000000000005" y="724" />
            </Array>
          </mxGeometry>
        </mxCell>
        <mxCell id="_VK_tqBm-G3R0EHeaTmm-89" value="alerte en cas de trafic malveillant" style="html=1;verticalAlign=bottom;endArrow=open;curved=0;rounded=0;endFill=0;" parent="1" edge="1">
          <mxGeometry x="-0.0029" relative="1" as="geometry">
            <mxPoint x="759.5" y="760" as="sourcePoint" />
            <mxPoint x="1.0003448275860478" y="760" as="targetPoint" />
            <mxPoint as="offset" />
          </mxGeometry>
        </mxCell>
        <mxCell id="_VK_tqBm-G3R0EHeaTmm-90" value="ref" style="shape=umlFrame;whiteSpace=wrap;html=1;pointerEvents=0;width=50;height=20;fillColor=#D5E8D4;fontColor=#333333;strokeColor=#000000;swimlaneFillColor=default;" parent="1" vertex="1">
          <mxGeometry x="1" y="80" width="479" height="30" as="geometry" />
        </mxCell>
        <mxCell id="_VK_tqBm-G3R0EHeaTmm-92" value="&lt;span style=&quot;color: rgb(0, 0, 0); font-family: Helvetica; font-size: 11px; font-style: normal; font-variant-ligatures: normal; font-variant-caps: normal; font-weight: 400; letter-spacing: normal; orphans: 2; text-align: center; text-indent: 0px; text-transform: none; widows: 2; word-spacing: 0px; -webkit-text-stroke-width: 0px; white-space: nowrap; background-color: rgb(255, 255, 255); text-decoration-thickness: initial; text-decoration-style: initial; text-decoration-color: initial; display: inline !important; float: none;&quot;&gt;Authentification interface web de mesure de performance&lt;/span&gt;" style="text;whiteSpace=wrap;html=1;" parent="1" vertex="1">
          <mxGeometry x="120" y="80" width="217" height="40" as="geometry" />
        </mxCell>
        <mxCell id="_VK_tqBm-G3R0EHeaTmm-93" value="ref" style="shape=umlFrame;whiteSpace=wrap;html=1;pointerEvents=0;width=50;height=20;fillColor=#D5E8D4;fontColor=#333333;strokeColor=#000000;swimlaneFillColor=default;" parent="1" vertex="1">
          <mxGeometry y="120" width="480" height="30" as="geometry" />
        </mxCell>
        <mxCell id="_VK_tqBm-G3R0EHeaTmm-94" value="&lt;span style=&quot;color: rgb(0, 0, 0); font-family: Helvetica; font-size: 11px; font-style: normal; font-variant-ligatures: normal; font-variant-caps: normal; font-weight: 400; letter-spacing: normal; orphans: 2; text-indent: 0px; text-transform: none; widows: 2; word-spacing: 0px; -webkit-text-stroke-width: 0px; white-space: nowrap; background-color: rgb(255, 255, 255); text-decoration-thickness: initial; text-decoration-style: initial; text-decoration-color: initial; float: none; display: inline !important;&quot;&gt;Gestion des serveurs DNS dans l&#39;interface web&amp;nbsp;&lt;/span&gt;&lt;span style=&quot;background-color: rgb(255, 255, 255); font-size: 11px; text-wrap: nowrap;&quot;&gt;de mesure de performance&lt;/span&gt;" style="text;whiteSpace=wrap;html=1;align=center;" parent="1" vertex="1">
          <mxGeometry x="60" y="120" width="410" height="30" as="geometry" />
        </mxCell>
        <mxCell id="_VK_tqBm-G3R0EHeaTmm-106" value="" style="group" parent="1" vertex="1" connectable="0">
          <mxGeometry x="-10" y="450" width="630" height="220" as="geometry" />
        </mxCell>
        <mxCell id="_VK_tqBm-G3R0EHeaTmm-64" value="Collecter les métriques en temps réel" style="html=1;verticalAlign=bottom;endArrow=open;curved=0;rounded=0;endFill=0;" parent="_VK_tqBm-G3R0EHeaTmm-106" edge="1" target="_VK_tqBm-G3R0EHeaTmm-1">
          <mxGeometry x="-0.0009" relative="1" as="geometry">
            <mxPoint x="619.69" y="20" as="sourcePoint" />
            <mxPoint x="385.00034482758605" y="20" as="targetPoint" />
            <mxPoint as="offset" />
          </mxGeometry>
        </mxCell>
        <mxCell id="_VK_tqBm-G3R0EHeaTmm-72" value="Sauvegarder&amp;nbsp;&lt;div&gt;les métriques&lt;/div&gt;" style="html=1;verticalAlign=bottom;endArrow=none;curved=0;rounded=0;endFill=0;startArrow=open;startFill=0;" parent="_VK_tqBm-G3R0EHeaTmm-106" edge="1">
          <mxGeometry x="0.0037" relative="1" as="geometry">
            <mxPoint x="490" y="56" as="sourcePoint" />
            <mxPoint x="620" y="56" as="targetPoint" />
            <mxPoint as="offset" />
          </mxGeometry>
        </mxCell>
        <mxCell id="_VK_tqBm-G3R0EHeaTmm-82" value="Consulter les DashBoards" style="html=1;verticalAlign=bottom;endArrow=block;curved=0;rounded=0;" parent="_VK_tqBm-G3R0EHeaTmm-106" edge="1">
          <mxGeometry relative="1" as="geometry">
            <mxPoint x="10" y="130" as="sourcePoint" />
            <mxPoint x="619.5" y="130.0000000000001" as="targetPoint" />
          </mxGeometry>
        </mxCell>
        <mxCell id="_VK_tqBm-G3R0EHeaTmm-85" value="DashBoards affichés en temps réel&amp;nbsp;" style="html=1;verticalAlign=bottom;endArrow=open;dashed=1;endSize=8;curved=0;rounded=0;" parent="_VK_tqBm-G3R0EHeaTmm-106" edge="1">
          <mxGeometry x="0.0044" relative="1" as="geometry">
            <mxPoint x="10" y="170" as="targetPoint" />
            <mxPoint x="620" y="170" as="sourcePoint" />
            <mxPoint as="offset" />
          </mxGeometry>
        </mxCell>
        <mxCell id="_VK_tqBm-G3R0EHeaTmm-100" value="Déclencher une alerte en cas de problème" style="html=1;verticalAlign=bottom;endArrow=open;curved=0;rounded=0;endFill=0;" parent="_VK_tqBm-G3R0EHeaTmm-106" edge="1">
          <mxGeometry x="-0.0029" relative="1" as="geometry">
            <mxPoint x="620.19" y="90" as="sourcePoint" />
            <mxPoint x="10" y="90" as="targetPoint" />
            <mxPoint as="offset" />
          </mxGeometry>
        </mxCell>
        <mxCell id="_VK_tqBm-G3R0EHeaTmm-86" value="loop surveillance continue&amp;nbsp;" style="shape=umlFrame;whiteSpace=wrap;html=1;pointerEvents=0;width=150;height=20;fillColor=#D5E8D4;" parent="_VK_tqBm-G3R0EHeaTmm-106" vertex="1">
          <mxGeometry x="10" y="-10" width="610" height="220" as="geometry" />
        </mxCell>
        <mxCell id="_VK_tqBm-G3R0EHeaTmm-107" value="loop détection continue" style="shape=umlFrame;whiteSpace=wrap;html=1;pointerEvents=0;width=140;height=20;fillColor=#D5E8D4;" parent="1" vertex="1">
          <mxGeometry x="1" y="700" width="759" height="80" as="geometry" />
        </mxCell>
        <mxCell id="0YugQAnFwqk1ILGSHodU-3" value="Résultats sauvegardés" style="html=1;verticalAlign=bottom;endArrow=open;dashed=1;endSize=8;curved=0;rounded=0;" edge="1" parent="1">
          <mxGeometry x="0.1229" relative="1" as="geometry">
            <mxPoint x="190" y="410" as="targetPoint" />
            <mxPoint x="477" y="411" as="sourcePoint" />
            <mxPoint as="offset" />
          </mxGeometry>
        </mxCell>
      </root>
    </mxGraphModel>
  </diagram>
</mxfile>
